<svg width="128" height="128" viewBox="0 0 128 128" fill="none" xmlns="http://www.w3.org/2000/svg">
<path d="M49.7514 15.4854L15.485 49.7518C7.61595 57.6209 7.61595 70.3791 15.485 78.2482L49.7514 112.515C57.6205 120.384 70.3787 120.384 78.2478 112.515L112.514 78.2482C120.383 70.3791 120.383 57.6209 112.514 49.7518L78.2478 15.4854C70.3787 7.61634 57.6205 7.61634 49.7514 15.4854Z" fill="#404297"/>
<path d="M111.14 53.79L34.83 38.81C33.68 39.94 32.38 40.98 31.22 42.11C28.59 44.67 25.82 47.12 23.41 49.9C21.94 51.6 20.35 53.34 19.57 55.51C17.51 61.22 19.84 68.18 24.91 71.48C29.48 74.45 35.33 74.79 40.23 72.38C42.88 71.07 44.33 69.61 45.64 66.99C49.38 59.47 46.2 49.79 46.88 41.7C47.3 36.71 49.72 27.85 51.89 23.32C52.12 22.85 53.63 20.71 53.45 20.53C52.89 20.4 52.74 20.85 52.4 21.13C50.76 22.48 49.49 24.3 48.05 25.78C43.74 30.22 39.24 34.49 34.82 38.81L111.14 53.79ZM55.86 25.02C52.27 28.47 51.24 32.01 51.65 37.01C51.79 38.66 52.17 39.73 52.85 41.21C58.17 52.66 73.91 47.87 83.9 48.74C88.67 49.16 96.75 51.48 101.21 53.35C102.75 54 104.17 54.96 105.72 55.59C105.85 55.03 105.4 54.88 105.12 54.54C101.13 49.73 94.39 44.29 89.79 39.56C87.36 37.06 85.01 34.41 82.59 31.91C79.24 28.44 74.1 22.04 69.09 21.26C63.95 20.46 59.58 21.44 55.86 25.02ZM59.69 49.97C43.79 52.14 46.29 76.94 62.88 75.33C79.61 73.71 76.97 47.61 59.69 49.97ZM86.5 56.19C84.02 57.22 83.14 57.69 81.39 59.79C78.4 63.38 78.53 66.13 78.39 70.58C78.19 76.72 79.21 83.05 78.3 89.22C77.38 95.43 75.12 102.75 71.79 108.04C72.01 108.25 73.9 106.61 74.16 106.36C80.86 99.94 87.29 93.18 94.02 86.76C96.79 84.12 99.53 81.91 102.13 78.97C107.26 73.16 109.23 67.69 104.23 60.69C103.14 59.17 102.55 58.43 100.93 57.39C99.26 56.32 98.31 56.07 96.42 55.59C92.48 54.59 90.26 54.62 86.51 56.19H86.5ZM40.53 92.15C41.47 93.08 42.43 94.35 43.53 95.45C46.12 98.03 48.09 100.08 51.04 102.34C52.51 103.47 52.88 103.91 54.65 104.74C60.44 107.46 67.29 105.59 71.17 100.54C73.51 97.5 74.45 94.18 74.17 90.35C74.08 89.18 73.78 87.87 73.41 86.77C68.67 72.91 51.47 79.38 40.71 78.33C36.18 77.89 29.7 76.29 25.43 74.69C23.47 73.96 21.67 72.97 19.8 72.07C19.32 72.48 25.31 77.43 25.81 77.91C30.74 82.62 35.68 87.36 40.53 92.15Z" fill="#404297"/>
<path d="M83.6001 31.91C86.0201 34.41 88.3701 37.06 90.8001 39.56C95.4001 44.29 102.14 49.73 106.13 54.54C106.41 54.88 106.86 55.02 106.73 55.59C105.18 54.96 103.77 54 102.22 53.35C97.7601 51.48 89.6801 49.16 84.9101 48.74C74.9101 47.86 59.1701 52.66 53.8601 41.21C55.3001 41.27 56.4301 42.16 57.7601 42.56C64.8701 44.71 76.0101 44.09 81.0501 37.92C82.7401 35.85 82.7501 34.31 83.6001 31.92V31.91Z" fill="#F59633"/>
<path d="M75.1899 90.35C73.4499 89.54 72.5099 87.85 70.8399 86.75C64.1299 82.32 52.9199 82.49 46.1399 86.7C43.9499 88.06 42.5099 89.76 41.5399 92.15C36.6899 87.36 31.7499 82.62 26.8199 77.91C26.3199 77.43 20.3299 72.48 20.8099 72.07C22.6799 72.96 24.4899 73.96 26.4399 74.69C30.7199 76.28 37.1899 77.88 41.7199 78.33C52.4799 79.38 69.6799 72.91 74.4199 86.77C74.7999 87.88 75.0999 89.18 75.1799 90.35H75.1899Z" fill="#F59633"/>
<path d="M95.02 86.76C88.3 93.18 81.86 99.94 75.16 106.36C74.9 106.61 73.01 108.25 72.79 108.04C76.12 102.74 78.38 95.43 79.3 89.22C80.21 83.06 79.19 76.73 79.39 70.58C81.11 77.18 84.37 86.33 92.51 86.74C93.37 86.78 94.33 86.07 95.02 86.76Z" fill="#F59633"/>
<path d="M35.83 38.81C40.25 34.49 44.75 30.22 49.06 25.78C50.5 24.3 51.77 22.48 53.41 21.13C53.75 20.85 53.9 20.4 54.46 20.53C54.64 20.71 53.13 22.85 52.9 23.32C50.72 27.85 48.31 36.71 47.89 41.7C47.21 49.79 50.39 59.47 46.65 66.99C46.43 65.03 47.14 63.04 47.25 61.14C47.73 53.02 44.79 41.23 35.84 38.82L35.83 38.81Z" fill="#F59633"/>
<path d="M41.24 72.37C36.34 74.79 30.48 74.44 25.92 71.47C24.64 67.9 23.13 64.41 22.92 60.53C22.72 56.85 23.68 53.43 24.42 49.89C26.83 47.11 29.6 44.65 32.23 42.1C35.04 42.46 36.66 42.39 38.98 44.2C45.2 49.05 45.84 60.11 43.56 67.03C42.92 68.96 41.75 70.46 41.24 72.36V72.37ZM32.45 45.77C30.48 46.11 28.67 48.06 27.67 49.69C24.28 55.23 24.17 63.86 28.07 69.17C34.01 77.25 41.01 70.19 42.36 62.85C43.53 56.48 41.11 44.28 32.45 45.77Z" fill="#FAB22F"/>
<path d="M101.93 57.39C103.41 62.8 104.15 67.68 102.61 73.2C98.9499 86.37 86.4399 86.6 82.7299 73.4C81.3899 68.65 81.7499 64.6 82.4099 59.79C84.1499 57.69 85.0299 57.23 87.5199 56.19C83.8199 61.49 83.0099 68.82 85.9699 74.67C88.3799 79.44 93.5499 81.52 97.5899 77.17C101.65 72.79 101.97 64.57 99.5399 59.33C98.8999 57.95 97.7499 57 97.4299 55.59C99.3099 56.07 100.27 56.32 101.94 57.39H101.93Z" fill="#FAB22F"/>
<path d="M105.23 60.68C105.35 64.32 105.73 67.63 105.19 71.28C104.78 74.03 103.6 76.29 103.12 78.96C100.52 81.91 97.7699 84.11 95.0099 86.75C94.3299 86.06 93.3699 86.77 92.4999 86.73C84.3599 86.31 81.0999 77.17 79.3799 70.57C79.5299 66.12 79.3999 63.37 82.3799 59.78C81.7199 64.59 81.3699 68.64 82.6999 73.39C86.4099 86.59 98.9199 86.37 102.58 73.19C104.12 67.67 103.38 62.79 101.9 57.38C103.52 58.42 104.12 59.16 105.2 60.68H105.23Z" fill="#F8A532"/>
<path d="M75.1901 90.35C75.4701 94.18 74.5201 97.5 72.1901 100.54C70.6101 100.89 69.4101 102.06 67.8901 102.69C65.9601 103.49 63.0001 104.25 60.9201 104.43C59.2001 104.58 57.2901 104.1 55.6701 104.73C53.9001 103.9 53.5301 103.46 52.0601 102.33C52.3401 101.77 53.0801 102.14 53.5201 102.22C56.5701 102.79 58.6701 103.08 61.7901 102.59C75.3301 100.43 75.9001 88.33 62.3401 85.94C55.5501 84.74 44.5201 86.77 44.5601 95.43C43.4601 94.34 42.5001 93.06 41.5601 92.13C42.5301 89.74 43.9701 88.04 46.1601 86.68C52.9401 82.47 64.1501 82.3 70.8601 86.73C72.5301 87.83 73.4701 89.52 75.2101 90.33L75.1901 90.35Z" fill="#F8A532"/>
<path d="M52.66 37.01C52.25 32.01 53.27 28.47 56.87 25.02C59.65 24.68 62.25 23.59 65.12 23.51C71.09 23.35 82.76 27.16 79.41 35.07C76.23 42.59 62.39 43.14 56.18 39.35C54.9 38.57 54.08 37.33 52.67 37.01H52.66ZM62.8 25.7C58.46 26.29 52.75 29.99 55.19 34.93C58.42 41.48 73.71 41.41 76.45 34.52C77.88 30.92 75.25 28.16 72.09 26.76C69.33 25.54 65.78 25.29 62.8 25.69V25.7Z" fill="#FAB22F"/>
<path d="M83.5999 31.91C82.7499 34.29 82.7399 35.84 81.0499 37.91C76.0099 44.09 64.8699 44.7 57.7599 42.55C56.4299 42.15 55.2999 41.26 53.8599 41.2C53.1799 39.73 52.7899 38.66 52.6599 37C54.0799 37.32 54.8899 38.55 56.1699 39.34C62.3799 43.13 76.2199 42.59 79.3999 35.06C82.7399 27.15 71.0799 23.34 65.1099 23.5C62.2499 23.58 59.6399 24.67 56.8599 25.01C60.5899 21.43 64.9599 20.44 70.0899 21.25C75.0999 22.04 80.2399 28.43 83.5899 31.9L83.5999 31.91Z" fill="#F8A532"/>
<path d="M52.06 102.34C49.11 100.07 47.14 98.02 44.55 95.45C44.51 86.79 55.53 84.76 62.33 85.96C75.89 88.35 75.32 100.44 61.78 102.61C58.67 103.11 56.56 102.81 53.51 102.24C53.07 102.16 52.34 101.78 52.05 102.35L52.06 102.34ZM58.3 87.14C53.91 87.17 45.84 89.89 47.54 95.62C49.68 102.84 66.01 102.97 69.24 96.26C72.14 90.25 62.84 87.11 58.3 87.14Z" fill="#FAB22F"/>
<path d="M97.4199 55.59C97.7399 57 98.8899 57.95 99.5299 59.33C101.95 64.57 101.64 72.79 97.5799 77.17C93.5399 81.52 88.3699 79.44 85.9599 74.67C82.9999 68.82 83.8199 61.48 87.5099 56.19C91.2699 54.62 93.4799 54.59 97.4199 55.59ZM91.6299 56.26C84.1799 57.46 83.7799 74.81 90.8599 76.97C97.5299 79 99.9599 69.99 99.5199 65.03C99.1599 61.04 96.3599 55.49 91.6399 56.26H91.6299Z" fill="#FCC229"/>
<path d="M46.65 66.98C45.35 69.6 43.89 71.07 41.24 72.37C41.74 70.47 42.92 68.97 43.56 67.04C45.84 60.11 45.2 49.05 38.98 44.21C36.66 42.4 35.04 42.47 32.23 42.11C33.39 40.99 34.68 39.94 35.84 38.81C44.79 41.23 47.73 53.01 47.25 61.13C47.14 63.02 46.43 65.02 46.65 66.98Z" fill="#F8A532"/>
<path d="M60.6999 49.97C77.9799 47.61 80.6199 73.71 63.8899 75.33C47.2999 76.94 44.7999 52.14 60.6999 49.97ZM61.6099 51.18C44.5599 52.77 50.1099 79.65 66.9899 73.62C79.1399 69.28 75.3599 49.89 61.6099 51.18Z" fill="#E85063"/>
<path d="M25.92 71.47C20.85 68.18 18.52 61.21 20.58 55.5C21.36 53.33 22.95 51.58 24.42 49.89C23.68 53.42 22.73 56.85 22.92 60.53C23.13 64.41 24.64 67.9 25.92 71.47Z" fill="#F8A532"/>
<path d="M103.13 78.97C103.61 76.3 104.79 74.04 105.2 71.29C105.74 67.64 105.36 64.33 105.24 60.69C110.24 67.69 108.26 73.16 103.14 78.97H103.13Z" fill="#F59633"/>
<path d="M72.1799 100.54C68.2999 105.59 61.4499 107.46 55.6599 104.74C57.2799 104.11 59.1899 104.59 60.9099 104.44C62.9799 104.26 65.9499 103.5 67.8799 102.7C69.3999 102.07 70.6099 100.9 72.1799 100.55V100.54Z" fill="#F59633"/>
<path d="M32.45 45.77C41.11 44.28 43.53 56.48 42.36 62.85C41.01 70.19 34.02 77.25 28.07 69.17C24.17 63.86 24.28 55.23 27.67 49.69C28.67 48.05 30.48 46.1 32.45 45.77ZM32.75 47.87C25.15 49.28 24.45 66.73 31.73 70.03C37.23 72.53 40.73 65.59 41.21 61.1C41.74 56.07 39.46 46.63 32.75 47.87Z" fill="#FCC229"/>
<path d="M62.7999 25.7C65.7799 25.3 69.3299 25.55 72.0899 26.77C75.2499 28.17 77.8799 30.92 76.4499 34.53C73.7099 41.42 58.4199 41.49 55.1899 34.94C52.7499 30 58.4599 26.29 62.7999 25.71V25.7ZM64.0099 26.9C59.0299 27.49 53.3299 32.14 58.8199 36.41C62.6999 39.42 71.0499 39.26 73.9899 35.06C77.9399 29.41 68.5199 26.36 64.0099 26.9Z" fill="#FCC229"/>
<path d="M58.3 87.14C62.85 87.11 72.14 90.25 69.24 96.26C66.01 102.97 49.68 102.84 47.54 95.62C45.84 89.89 53.91 87.18 58.3 87.14ZM55.9 88.64C52.87 89.02 48.22 91.5 49.2 95.16C50.82 101.23 64.36 101.5 67.35 96.16C69.08 93.05 66.38 90.54 63.69 89.4C61.28 88.39 58.51 88.31 55.91 88.64H55.9Z" fill="#FCC229"/>
<path d="M91.63 56.26C96.36 55.5 99.16 61.04 99.51 65.03C99.95 69.99 97.52 79 90.85 76.97C83.77 74.81 84.18 57.46 91.62 56.26H91.63ZM91.63 58.06C87.73 58.76 86.62 65.07 86.91 68.32C87.75 77.68 97.23 77.91 98.29 68.89C98.78 64.68 97.27 57.04 91.63 58.05V58.06Z" fill="#FBD529"/>
<path d="M61.6099 51.18C75.3599 49.9 79.1399 69.29 66.9899 73.62C50.1099 79.64 44.5599 52.77 61.6099 51.18ZM61.9099 52.07C53.7699 52.81 49.1799 62.08 53.9199 68.87C60.1899 77.85 74.6799 72.6 73.3599 61.16C72.7499 55.85 67.1499 51.59 61.9099 52.07Z" fill="#F38056"/>
<path d="M32.75 47.87C39.46 46.63 41.74 56.07 41.21 61.1C40.73 65.59 37.24 72.53 31.73 70.03C24.46 66.73 25.15 49.28 32.75 47.87ZM33.36 50.55C27.01 51.41 26.89 65.75 32.51 67.44C37.87 69.04 39.76 61.8 39.43 57.84C39.17 54.81 37.02 50.05 33.36 50.55Z" fill="#FBD529"/>
<path d="M64.01 26.9C68.52 26.36 77.94 29.41 73.99 35.06C71.0499 39.26 62.69 39.42 58.82 36.41C53.33 32.15 59.03 27.5 64.01 26.9ZM64.3 28.4C57.35 29.34 57.04 35.83 64.36 36.88C66.85 37.24 72.03 36.24 72.48 33.25C73.07 29.29 67.3199 28 64.3099 28.41L64.3 28.4Z" fill="#FBD529"/>
<path d="M55.9 88.64C58.5 88.31 61.27 88.39 63.68 89.4C66.37 90.53 69.07 93.05 67.34 96.16C64.36 101.5 50.81 101.22 49.19 95.16C48.22 91.51 52.86 89.03 55.89 88.64H55.9ZM58.02 89.53C54.92 89.65 50.63 91.34 51.15 95.02C51.87 100.14 66.83 100.42 65.9 93.49C65.51 90.59 60.5 89.44 58.02 89.53Z" fill="#FBD529"/>
<path d="M91.6301 58.06C97.2701 57.05 98.7801 64.69 98.2901 68.9C97.2301 77.91 87.7501 77.69 86.9101 68.33C86.6201 65.07 87.7301 58.77 91.6301 58.07V58.06ZM92.2401 60.44C87.6701 61.2 87.3201 70.57 91.3001 72.64C94.8101 74.46 96.9401 69.35 96.8401 66.53C96.7601 64.29 95.0601 59.97 92.2401 60.44Z" fill="#FBE468"/>
<path d="M61.91 52.07C67.14 51.59 72.74 55.85 73.36 61.16C74.68 72.6 60.19 77.84 53.92 68.87C49.18 62.08 53.77 52.81 61.91 52.07ZM61 52.97C48.95 54.61 50.8 74.07 63.9 72.64C76.74 71.23 74.96 51.07 61 52.97Z" fill="#F8A532"/>
<path d="M33.36 50.55C37.02 50.05 39.18 54.81 39.43 57.84C39.76 61.8 37.87 69.04 32.51 67.44C26.88 65.76 27.01 51.42 33.36 50.55ZM33.04 52.66C28.71 53.64 28.65 63.94 32.91 65.55C36.32 66.84 38.3 61.74 38.26 59.04C38.22 56.32 36.45 51.88 33.04 52.66Z" fill="#FBE468"/>
<path d="M64.2999 28.4C67.3099 27.99 73.0599 29.29 72.4699 33.24C72.0199 36.24 66.8399 37.23 64.3499 36.87C57.0299 35.82 57.3399 29.33 64.2899 28.39L64.2999 28.4ZM64.2899 29.89C59.2899 30.74 60.9899 36.19 66.5999 35.48C72.4199 34.75 70.5899 28.82 64.2899 29.89Z" fill="#FCEC92"/>
<path d="M58.02 89.53C60.5 89.44 65.51 90.59 65.9 93.49C66.83 100.42 51.86 100.14 51.15 95.02C50.63 91.34 54.93 89.65 58.02 89.53ZM56.48 91.02C54.7 91.34 52.35 93.25 53.33 95.22C55 98.57 63.23 98.22 63.76 94.67C64.28 91.17 59.02 90.55 56.48 91.01V91.02Z" fill="#FBE468"/>
<path d="M92.2399 60.44C95.0599 59.97 96.7599 64.29 96.8399 66.53C96.9399 69.35 94.8099 74.46 91.2999 72.64C87.3199 70.58 87.6699 61.2 92.2399 60.44ZM91.6199 61.95C88.1699 62.98 88.8399 72 92.7399 71.77C97.1999 71.51 97.0099 60.35 91.6199 61.95Z" fill="#FCEC92"/>
<path d="M60.9999 52.97C74.9499 51.07 76.7399 71.23 63.8999 72.64C50.7999 74.07 48.9499 54.61 60.9999 52.97ZM60.9899 54.46C50.8599 56.18 52.7099 72.74 64.1499 71.09C74.8399 69.55 72.7299 52.46 60.9899 54.46Z" fill="#FCC229"/>
<path d="M33.0401 52.66C36.4401 51.89 38.2201 56.33 38.2601 59.04C38.3001 61.74 36.3201 66.83 32.9101 65.55C28.6501 63.94 28.7101 53.64 33.0401 52.66ZM33.0401 54.15C29.8001 55.12 29.8301 63.43 33.3501 64.22C36.0101 64.81 37.4201 60.98 37.3201 58.78C37.2101 56.5 35.8401 53.32 33.0501 54.15H33.0401Z" fill="#FCEC92"/>
<path d="M64.2901 29.89C70.5901 28.82 72.4201 34.76 66.6001 35.48C60.9901 36.18 59.3001 30.73 64.2901 29.89Z" fill="#FCF3B3"/>
<path d="M56.48 91.02C59.0201 90.56 64.27 91.18 63.76 94.68C63.23 98.23 55.0001 98.58 53.3301 95.23C52.3501 93.26 54.7 91.35 56.48 91.03V91.02Z" fill="#FCF3B3"/>
<path d="M91.6199 61.95C96.9999 60.35 97.1999 71.51 92.7399 71.77C88.8499 72 88.1699 62.97 91.6199 61.95Z" fill="#FCF3B3"/>
<path d="M60.9899 54.46C72.7299 52.46 74.8399 69.55 64.1499 71.09C52.7099 72.74 50.8599 56.18 60.9899 54.46ZM61.2899 57.76C60.2099 57.96 58.4799 59.5 57.9999 60.47C55.6699 65.23 61.4099 70.13 65.7199 66.98C70.5299 63.47 67.1199 56.69 61.2899 57.76Z" fill="#FBD529"/>
<path d="M33.04 54.15C35.83 53.32 37.2 56.5 37.31 58.78C37.42 60.97 36.01 64.81 33.34 64.22C29.82 63.44 29.79 55.12 33.03 54.15H33.04Z" fill="#FCF3B3"/>
<path d="M61.2901 57.76C67.1201 56.69 70.5301 63.47 65.7201 66.98C61.4001 70.13 55.6701 65.24 58.0001 60.47C58.4801 59.5 60.2101 57.96 61.2901 57.76ZM61.2801 58.65C60.3901 58.85 59.0301 60.32 58.6901 61.16C56.7701 65.89 63.3501 69.43 66.3301 65.19C68.7801 61.71 65.3801 57.72 61.2701 58.65H61.2801Z" fill="#FBE468"/>
<path d="M61.28 58.65C65.39 57.72 68.79 61.71 66.34 65.19C63.36 69.43 56.78 65.89 58.7 61.16C59.04 60.32 60.4 58.85 61.29 58.65H61.28ZM62.49 59.25C61.22 59.36 59.47 60.75 59.28 62.05C58.46 67.72 67.4 67.35 66.11 61.79C65.79 60.42 63.89 59.12 62.49 59.25Z" fill="#FCEC92"/>
<path d="M62.4901 59.25C63.8901 59.13 65.8001 60.42 66.1101 61.79C67.4001 67.35 58.4601 67.72 59.2801 62.05C59.4701 60.75 61.2201 59.36 62.4901 59.25ZM62.1901 61.04C60.8201 61.44 60.5301 63.7 62.0501 64.36C65.0601 65.66 65.1601 60.18 62.1901 61.04Z" fill="#FCF3B3"/>
<path d="M62.19 61.04C65.16 60.18 65.06 65.66 62.05 64.36C60.53 63.7 60.82 61.44 62.19 61.04Z" fill="#FEFEFE"/>
</svg>
